<svg width="127" height="36" viewBox="0 0 127 36" fill="none" xmlns="http://www.w3.org/2000/svg">
<path d="M51.3023 16.6985C50.3663 16.6985 49.4963 16.5425 48.6923 16.2305C47.9003 15.9065 47.2103 15.4565 46.6223 14.8805C46.0343 14.3045 45.5783 13.6325 45.2543 12.8645C44.9303 12.0845 44.7683 11.2325 44.7683 10.3085C44.7683 9.38452 44.9303 8.53852 45.2543 7.77052C45.5783 6.99052 46.0343 6.31252 46.6223 5.73652C47.2223 5.16052 47.9183 4.71652 48.7103 4.40452C49.5023 4.08052 50.3663 3.91852 51.3023 3.91852C52.1903 3.91852 53.0183 4.06252 53.7863 4.35052C54.5663 4.63852 55.2323 5.07652 55.7843 5.66452L55.2083 6.25852C54.6683 5.73052 54.0683 5.35252 53.4083 5.12452C52.7603 4.88452 52.0703 4.76452 51.3383 4.76452C50.5343 4.76452 49.7843 4.90252 49.0883 5.17852C48.4043 5.45452 47.8043 5.84452 47.2883 6.34852C46.7843 6.85252 46.3883 7.44052 46.1003 8.11252C45.8243 8.78452 45.6863 9.51652 45.6863 10.3085C45.6863 11.1005 45.8243 11.8325 46.1003 12.5045C46.3883 13.1765 46.7843 13.7645 47.2883 14.2685C47.8043 14.7725 48.4043 15.1625 49.0883 15.4385C49.7843 15.7145 50.5343 15.8525 51.3383 15.8525C52.0703 15.8525 52.7603 15.7385 53.4083 15.5105C54.0683 15.2705 54.6683 14.8805 55.2083 14.3405L55.7843 14.9345C55.2323 15.5225 54.5663 15.9665 53.7863 16.2665C53.0183 16.5545 52.1903 16.6985 51.3023 16.6985ZM59.6511 16.6085V3.25252H60.5511V16.6085H59.6511ZM69.0964 16.6805C68.1964 16.6805 67.3924 16.4765 66.6844 16.0685C65.9884 15.6605 65.4304 15.0965 65.0104 14.3765C64.6024 13.6565 64.3984 12.8345 64.3984 11.9105C64.3984 10.9745 64.6024 10.1525 65.0104 9.44452C65.4304 8.72452 65.9884 8.16052 66.6844 7.75252C67.3924 7.34452 68.1964 7.14052 69.0964 7.14052C69.9964 7.14052 70.8004 7.34452 71.5084 7.75252C72.2164 8.16052 72.7744 8.72452 73.1824 9.44452C73.5904 10.1525 73.7944 10.9745 73.7944 11.9105C73.7944 12.8345 73.5904 13.6565 73.1824 14.3765C72.7744 15.0965 72.2164 15.6605 71.5084 16.0685C70.8004 16.4765 69.9964 16.6805 69.0964 16.6805ZM69.0964 15.8705C69.8164 15.8705 70.4644 15.7085 71.0404 15.3845C71.6164 15.0485 72.0664 14.5805 72.3904 13.9805C72.7144 13.3805 72.8764 12.6905 72.8764 11.9105C72.8764 11.1185 72.7144 10.4285 72.3904 9.84052C72.0664 9.24052 71.6164 8.77852 71.0404 8.45452C70.4644 8.11852 69.8164 7.95052 69.0964 7.95052C68.3764 7.95052 67.7284 8.11852 67.1524 8.45452C66.5884 8.77852 66.1384 9.24052 65.8024 9.84052C65.4784 10.4285 65.3164 11.1185 65.3164 11.9105C65.3164 12.6905 65.4784 13.3805 65.8024 13.9805C66.1384 14.5805 66.5884 15.0485 67.1524 15.3845C67.7284 15.7085 68.3764 15.8705 69.0964 15.8705ZM77.6666 16.6085V7.21252H78.5306V9.78652L78.4406 9.49852C78.7046 8.74252 79.1486 8.16052 79.7726 7.75252C80.3966 7.34452 81.1766 7.14052 82.1126 7.14052V8.02252C82.0766 8.02252 82.0406 8.02252 82.0046 8.02252C81.9686 8.01052 81.9326 8.00452 81.8966 8.00452C80.8526 8.00452 80.0366 8.33452 79.4486 8.99452C78.8606 9.64252 78.5666 10.5485 78.5666 11.7125V16.6085H77.6666ZM85.6723 16.6085V7.21252H86.5723V16.6085H85.6723ZM86.1223 4.92652C85.9183 4.92652 85.7443 4.85452 85.6003 4.71052C85.4563 4.56652 85.3843 4.39852 85.3843 4.20652C85.3843 4.00252 85.4563 3.82852 85.6003 3.68452C85.7443 3.54052 85.9183 3.46852 86.1223 3.46852C86.3383 3.46852 86.5123 3.54052 86.6443 3.68452C86.7883 3.81652 86.8603 3.98452 86.8603 4.18852C86.8603 4.39252 86.7883 4.56652 86.6443 4.71052C86.5123 4.85452 86.3383 4.92652 86.1223 4.92652ZM95.1177 16.6805C94.2177 16.6805 93.4137 16.4765 92.7057 16.0685C92.0097 15.6605 91.4517 15.0965 91.0317 14.3765C90.6237 13.6565 90.4197 12.8345 90.4197 11.9105C90.4197 10.9745 90.6237 10.1525 91.0317 9.44452C91.4517 8.72452 92.0097 8.16052 92.7057 7.75252C93.4137 7.34452 94.2177 7.14052 95.1177 7.14052C96.0177 7.14052 96.8217 7.34452 97.5297 7.75252C98.2377 8.16052 98.7957 8.72452 99.2037 9.44452C99.6117 10.1525 99.8157 10.9745 99.8157 11.9105C99.8157 12.8345 99.6117 13.6565 99.2037 14.3765C98.7957 15.0965 98.2377 15.6605 97.5297 16.0685C96.8217 16.4765 96.0177 16.6805 95.1177 16.6805ZM95.1177 15.8705C95.8377 15.8705 96.4857 15.7085 97.0617 15.3845C97.6377 15.0485 98.0877 14.5805 98.4117 13.9805C98.7357 13.3805 98.8977 12.6905 98.8977 11.9105C98.8977 11.1185 98.7357 10.4285 98.4117 9.84052C98.0877 9.24052 97.6377 8.77852 97.0617 8.45452C96.4857 8.11852 95.8377 7.95052 95.1177 7.95052C94.3977 7.95052 93.7497 8.11852 93.1737 8.45452C92.6097 8.77852 92.1597 9.24052 91.8237 9.84052C91.4997 10.4285 91.3377 11.1185 91.3377 11.9105C91.3377 12.6905 91.4997 13.3805 91.8237 13.9805C92.1597 14.5805 92.6097 15.0485 93.1737 15.3845C93.7497 15.7085 94.3977 15.8705 95.1177 15.8705ZM51.3023 31.6985C50.3663 31.6985 49.4963 31.5425 48.6923 31.2305C47.9003 30.9065 47.2103 30.4565 46.6223 29.8805C46.0343 29.3045 45.5783 28.6325 45.2543 27.8645C44.9303 27.0845 44.7683 26.2325 44.7683 25.3085C44.7683 24.3845 44.9303 23.5385 45.2543 22.7705C45.5783 21.9905 46.0343 21.3125 46.6223 20.7365C47.2223 20.1605 47.9183 19.7165 48.7103 19.4045C49.5023 19.0805 50.3663 18.9185 51.3023 18.9185C52.1903 18.9185 53.0183 19.0625 53.7863 19.3505C54.5663 19.6385 55.2323 20.0765 55.7843 20.6645L55.2083 21.2585C54.6683 20.7305 54.0683 20.3525 53.4083 20.1245C52.7603 19.8845 52.0703 19.7645 51.3383 19.7645C50.5343 19.7645 49.7843 19.9025 49.0883 20.1785C48.4043 20.4545 47.8043 20.8445 47.2883 21.3485C46.7843 21.8525 46.3883 22.4405 46.1003 23.1125C45.8243 23.7845 45.6863 24.5165 45.6863 25.3085C45.6863 26.1005 45.8243 26.8325 46.1003 27.5045C46.3883 28.1765 46.7843 28.7645 47.2883 29.2685C47.8043 29.7725 48.4043 30.1625 49.0883 30.4385C49.7843 30.7145 50.5343 30.8525 51.3383 30.8525C52.0703 30.8525 52.7603 30.7385 53.4083 30.5105C54.0683 30.2705 54.6683 29.8805 55.2083 29.3405L55.7843 29.9345C55.2323 30.5225 54.5663 30.9665 53.7863 31.2665C53.0183 31.5545 52.1903 31.6985 51.3023 31.6985ZM62.8836 31.6805C61.9836 31.6805 61.1796 31.4765 60.4716 31.0685C59.7756 30.6605 59.2176 30.0965 58.7976 29.3765C58.3896 28.6565 58.1856 27.8345 58.1856 26.9105C58.1856 25.9745 58.3896 25.1525 58.7976 24.4445C59.2176 23.7245 59.7756 23.1605 60.4716 22.7525C61.1796 22.3445 61.9836 22.1405 62.8836 22.1405C63.7836 22.1405 64.5876 22.3445 65.2956 22.7525C66.0036 23.1605 66.5616 23.7245 66.9696 24.4445C67.3776 25.1525 67.5816 25.9745 67.5816 26.9105C67.5816 27.8345 67.3776 28.6565 66.9696 29.3765C66.5616 30.0965 66.0036 30.6605 65.2956 31.0685C64.5876 31.4765 63.7836 31.6805 62.8836 31.6805ZM62.8836 30.8705C63.6036 30.8705 64.2516 30.7085 64.8276 30.3845C65.4036 30.0485 65.8536 29.5805 66.1776 28.9805C66.5016 28.3805 66.6636 27.6905 66.6636 26.9105C66.6636 26.1185 66.5016 25.4285 66.1776 24.8405C65.8536 24.2405 65.4036 23.7785 64.8276 23.4545C64.2516 23.1185 63.6036 22.9505 62.8836 22.9505C62.1636 22.9505 61.5156 23.1185 60.9396 23.4545C60.3756 23.7785 59.9256 24.2405 59.5896 24.8405C59.2656 25.4285 59.1036 26.1185 59.1036 26.9105C59.1036 27.6905 59.2656 28.3805 59.5896 28.9805C59.9256 29.5805 60.3756 30.0485 60.9396 30.3845C61.5156 30.7085 62.1636 30.8705 62.8836 30.8705ZM76.0437 22.1405C76.8117 22.1405 77.4777 22.2905 78.0417 22.5905C78.6177 22.8785 79.0617 23.3225 79.3737 23.9225C79.6977 24.5105 79.8597 25.2425 79.8597 26.1185V31.6085H78.9597V26.1905C78.9597 25.1345 78.6897 24.3305 78.1497 23.7785C77.6217 23.2265 76.8777 22.9505 75.9177 22.9505C75.1857 22.9505 74.5497 23.1005 74.0097 23.4005C73.4697 23.7005 73.0557 24.1205 72.7677 24.6605C72.4917 25.2005 72.3537 25.8485 72.3537 26.6045V31.6085H71.4537V22.2125H72.3177V24.8225L72.1917 24.5345C72.4797 23.7905 72.9537 23.2085 73.6137 22.7885C74.2737 22.3565 75.0837 22.1405 76.0437 22.1405ZM89.2351 22.1405C90.0031 22.1405 90.6691 22.2905 91.2331 22.5905C91.8091 22.8785 92.2531 23.3225 92.5651 23.9225C92.8891 24.5105 93.0511 25.2425 93.0511 26.1185V31.6085H92.1511V26.1905C92.1511 25.1345 91.8811 24.3305 91.3411 23.7785C90.8131 23.2265 90.0691 22.9505 89.1091 22.9505C88.3771 22.9505 87.7411 23.1005 87.2011 23.4005C86.6611 23.7005 86.2471 24.1205 85.9591 24.6605C85.6831 25.2005 85.5451 25.8485 85.5451 26.6045V31.6085H84.6451V22.2125H85.5091V24.8225L85.3831 24.5345C85.6711 23.7905 86.1451 23.2085 86.8051 22.7885C87.4651 22.3565 88.2751 22.1405 89.2351 22.1405ZM101.652 31.6805C100.704 31.6805 99.8644 31.4765 99.1324 31.0685C98.4124 30.6605 97.8424 30.0965 97.4224 29.3765C97.0144 28.6565 96.8104 27.8345 96.8104 26.9105C96.8104 25.9745 97.0024 25.1525 97.3864 24.4445C97.7824 23.7245 98.3224 23.1605 99.0064 22.7525C99.6904 22.3445 100.458 22.1405 101.31 22.1405C102.162 22.1405 102.924 22.3385 103.596 22.7345C104.28 23.1305 104.814 23.6885 105.198 24.4085C105.594 25.1165 105.792 25.9385 105.792 26.8745C105.792 26.9105 105.786 26.9525 105.774 27.0005C105.774 27.0365 105.774 27.0785 105.774 27.1265H97.4764V26.4245H105.288L104.928 26.7665C104.94 26.0345 104.784 25.3805 104.46 24.8045C104.148 24.2165 103.722 23.7605 103.182 23.4365C102.642 23.1005 102.018 22.9325 101.31 22.9325C100.614 22.9325 99.9904 23.1005 99.4384 23.4365C98.8984 23.7605 98.4724 24.2165 98.1604 24.8045C97.8484 25.3805 97.6924 26.0405 97.6924 26.7845V26.9465C97.6924 27.7145 97.8604 28.3985 98.1964 28.9985C98.5444 29.5865 99.0184 30.0485 99.6184 30.3845C100.218 30.7085 100.902 30.8705 101.67 30.8705C102.27 30.8705 102.828 30.7625 103.344 30.5465C103.872 30.3305 104.316 30.0005 104.676 29.5565L105.198 30.1505C104.79 30.6545 104.274 31.0385 103.65 31.3025C103.038 31.5545 102.372 31.6805 101.652 31.6805ZM113.383 31.6805C112.471 31.6805 111.655 31.4765 110.935 31.0685C110.227 30.6605 109.663 30.0965 109.243 29.3765C108.835 28.6565 108.631 27.8345 108.631 26.9105C108.631 25.9745 108.835 25.1465 109.243 24.4265C109.663 23.7065 110.227 23.1485 110.935 22.7525C111.655 22.3445 112.471 22.1405 113.383 22.1405C114.139 22.1405 114.823 22.2845 115.435 22.5725C116.059 22.8605 116.563 23.2925 116.947 23.8685L116.281 24.3545C115.945 23.8745 115.525 23.5205 115.021 23.2925C114.517 23.0645 113.971 22.9505 113.383 22.9505C112.651 22.9505 111.991 23.1185 111.403 23.4545C110.827 23.7785 110.371 24.2405 110.035 24.8405C109.711 25.4285 109.549 26.1185 109.549 26.9105C109.549 27.7025 109.711 28.3985 110.035 28.9985C110.371 29.5865 110.827 30.0485 111.403 30.3845C111.991 30.7085 112.651 30.8705 113.383 30.8705C113.971 30.8705 114.517 30.7565 115.021 30.5285C115.525 30.3005 115.945 29.9465 116.281 29.4665L116.947 29.9525C116.563 30.5285 116.059 30.9605 115.435 31.2485C114.823 31.5365 114.139 31.6805 113.383 31.6805ZM123.562 31.6805C122.734 31.6805 122.098 31.4525 121.654 30.9965C121.222 30.5405 121.006 29.9165 121.006 29.1245V20.1605H121.906V29.0345C121.906 29.6345 122.056 30.0965 122.356 30.4205C122.656 30.7445 123.088 30.9065 123.652 30.9065C124.24 30.9065 124.726 30.7325 125.11 30.3845L125.488 31.0145C125.248 31.2425 124.954 31.4105 124.606 31.5185C124.27 31.6265 123.922 31.6805 123.562 31.6805ZM119.278 22.9865V22.2125H124.894V22.9865H119.278Z" fill="url(#paint0_linear_1_108)"/>
<path d="M51.3023 16.6985C50.3663 16.6985 49.4963 16.5425 48.6923 16.2305C47.9003 15.9065 47.2103 15.4565 46.6223 14.8805C46.0343 14.3045 45.5783 13.6325 45.2543 12.8645C44.9303 12.0845 44.7683 11.2325 44.7683 10.3085C44.7683 9.38452 44.9303 8.53852 45.2543 7.77052C45.5783 6.99052 46.0343 6.31252 46.6223 5.73652C47.2223 5.16052 47.9183 4.71652 48.7103 4.40452C49.5023 4.08052 50.3663 3.91852 51.3023 3.91852C52.1903 3.91852 53.0183 4.06252 53.7863 4.35052C54.5663 4.63852 55.2323 5.07652 55.7843 5.66452L55.2083 6.25852C54.6683 5.73052 54.0683 5.35252 53.4083 5.12452C52.7603 4.88452 52.0703 4.76452 51.3383 4.76452C50.5343 4.76452 49.7843 4.90252 49.0883 5.17852C48.4043 5.45452 47.8043 5.84452 47.2883 6.34852C46.7843 6.85252 46.3883 7.44052 46.1003 8.11252C45.8243 8.78452 45.6863 9.51652 45.6863 10.3085C45.6863 11.1005 45.8243 11.8325 46.1003 12.5045C46.3883 13.1765 46.7843 13.7645 47.2883 14.2685C47.8043 14.7725 48.4043 15.1625 49.0883 15.4385C49.7843 15.7145 50.5343 15.8525 51.3383 15.8525C52.0703 15.8525 52.7603 15.7385 53.4083 15.5105C54.0683 15.2705 54.6683 14.8805 55.2083 14.3405L55.7843 14.9345C55.2323 15.5225 54.5663 15.9665 53.7863 16.2665C53.0183 16.5545 52.1903 16.6985 51.3023 16.6985ZM59.6511 16.6085V3.25252H60.5511V16.6085H59.6511ZM69.0964 16.6805C68.1964 16.6805 67.3924 16.4765 66.6844 16.0685C65.9884 15.6605 65.4304 15.0965 65.0104 14.3765C64.6024 13.6565 64.3984 12.8345 64.3984 11.9105C64.3984 10.9745 64.6024 10.1525 65.0104 9.44452C65.4304 8.72452 65.9884 8.16052 66.6844 7.75252C67.3924 7.34452 68.1964 7.14052 69.0964 7.14052C69.9964 7.14052 70.8004 7.34452 71.5084 7.75252C72.2164 8.16052 72.7744 8.72452 73.1824 9.44452C73.5904 10.1525 73.7944 10.9745 73.7944 11.9105C73.7944 12.8345 73.5904 13.6565 73.1824 14.3765C72.7744 15.0965 72.2164 15.6605 71.5084 16.0685C70.8004 16.4765 69.9964 16.6805 69.0964 16.6805ZM69.0964 15.8705C69.8164 15.8705 70.4644 15.7085 71.0404 15.3845C71.6164 15.0485 72.0664 14.5805 72.3904 13.9805C72.7144 13.3805 72.8764 12.6905 72.8764 11.9105C72.8764 11.1185 72.7144 10.4285 72.3904 9.84052C72.0664 9.24052 71.6164 8.77852 71.0404 8.45452C70.4644 8.11852 69.8164 7.95052 69.0964 7.95052C68.3764 7.95052 67.7284 8.11852 67.1524 8.45452C66.5884 8.77852 66.1384 9.24052 65.8024 9.84052C65.4784 10.4285 65.3164 11.1185 65.3164 11.9105C65.3164 12.6905 65.4784 13.3805 65.8024 13.9805C66.1384 14.5805 66.5884 15.0485 67.1524 15.3845C67.7284 15.7085 68.3764 15.8705 69.0964 15.8705ZM77.6666 16.6085V7.21252H78.5306V9.78652L78.4406 9.49852C78.7046 8.74252 79.1486 8.16052 79.7726 7.75252C80.3966 7.34452 81.1766 7.14052 82.1126 7.14052V8.02252C82.0766 8.02252 82.0406 8.02252 82.0046 8.02252C81.9686 8.01052 81.9326 8.00452 81.8966 8.00452C80.8526 8.00452 80.0366 8.33452 79.4486 8.99452C78.8606 9.64252 78.5666 10.5485 78.5666 11.7125V16.6085H77.6666ZM85.6723 16.6085V7.21252H86.5723V16.6085H85.6723ZM86.1223 4.92652C85.9183 4.92652 85.7443 4.85452 85.6003 4.71052C85.4563 4.56652 85.3843 4.39852 85.3843 4.20652C85.3843 4.00252 85.4563 3.82852 85.6003 3.68452C85.7443 3.54052 85.9183 3.46852 86.1223 3.46852C86.3383 3.46852 86.5123 3.54052 86.6443 3.68452C86.7883 3.81652 86.8603 3.98452 86.8603 4.18852C86.8603 4.39252 86.7883 4.56652 86.6443 4.71052C86.5123 4.85452 86.3383 4.92652 86.1223 4.92652ZM95.1177 16.6805C94.2177 16.6805 93.4137 16.4765 92.7057 16.0685C92.0097 15.6605 91.4517 15.0965 91.0317 14.3765C90.6237 13.6565 90.4197 12.8345 90.4197 11.9105C90.4197 10.9745 90.6237 10.1525 91.0317 9.44452C91.4517 8.72452 92.0097 8.16052 92.7057 7.75252C93.4137 7.34452 94.2177 7.14052 95.1177 7.14052C96.0177 7.14052 96.8217 7.34452 97.5297 7.75252C98.2377 8.16052 98.7957 8.72452 99.2037 9.44452C99.6117 10.1525 99.8157 10.9745 99.8157 11.9105C99.8157 12.8345 99.6117 13.6565 99.2037 14.3765C98.7957 15.0965 98.2377 15.6605 97.5297 16.0685C96.8217 16.4765 96.0177 16.6805 95.1177 16.6805ZM95.1177 15.8705C95.8377 15.8705 96.4857 15.7085 97.0617 15.3845C97.6377 15.0485 98.0877 14.5805 98.4117 13.9805C98.7357 13.3805 98.8977 12.6905 98.8977 11.9105C98.8977 11.1185 98.7357 10.4285 98.4117 9.84052C98.0877 9.24052 97.6377 8.77852 97.0617 8.45452C96.4857 8.11852 95.8377 7.95052 95.1177 7.95052C94.3977 7.95052 93.7497 8.11852 93.1737 8.45452C92.6097 8.77852 92.1597 9.24052 91.8237 9.84052C91.4997 10.4285 91.3377 11.1185 91.3377 11.9105C91.3377 12.6905 91.4997 13.3805 91.8237 13.9805C92.1597 14.5805 92.6097 15.0485 93.1737 15.3845C93.7497 15.7085 94.3977 15.8705 95.1177 15.8705ZM51.3023 31.6985C50.3663 31.6985 49.4963 31.5425 48.6923 31.2305C47.9003 30.9065 47.2103 30.4565 46.6223 29.8805C46.0343 29.3045 45.5783 28.6325 45.2543 27.8645C44.9303 27.0845 44.7683 26.2325 44.7683 25.3085C44.7683 24.3845 44.9303 23.5385 45.2543 22.7705C45.5783 21.9905 46.0343 21.3125 46.6223 20.7365C47.2223 20.1605 47.9183 19.7165 48.7103 19.4045C49.5023 19.0805 50.3663 18.9185 51.3023 18.9185C52.1903 18.9185 53.0183 19.0625 53.7863 19.3505C54.5663 19.6385 55.2323 20.0765 55.7843 20.6645L55.2083 21.2585C54.6683 20.7305 54.0683 20.3525 53.4083 20.1245C52.7603 19.8845 52.0703 19.7645 51.3383 19.7645C50.5343 19.7645 49.7843 19.9025 49.0883 20.1785C48.4043 20.4545 47.8043 20.8445 47.2883 21.3485C46.7843 21.8525 46.3883 22.4405 46.1003 23.1125C45.8243 23.7845 45.6863 24.5165 45.6863 25.3085C45.6863 26.1005 45.8243 26.8325 46.1003 27.5045C46.3883 28.1765 46.7843 28.7645 47.2883 29.2685C47.8043 29.7725 48.4043 30.1625 49.0883 30.4385C49.7843 30.7145 50.5343 30.8525 51.3383 30.8525C52.0703 30.8525 52.7603 30.7385 53.4083 30.5105C54.0683 30.2705 54.6683 29.8805 55.2083 29.3405L55.7843 29.9345C55.2323 30.5225 54.5663 30.9665 53.7863 31.2665C53.0183 31.5545 52.1903 31.6985 51.3023 31.6985ZM62.8836 31.6805C61.9836 31.6805 61.1796 31.4765 60.4716 31.0685C59.7756 30.6605 59.2176 30.0965 58.7976 29.3765C58.3896 28.6565 58.1856 27.8345 58.1856 26.9105C58.1856 25.9745 58.3896 25.1525 58.7976 24.4445C59.2176 23.7245 59.7756 23.1605 60.4716 22.7525C61.1796 22.3445 61.9836 22.1405 62.8836 22.1405C63.7836 22.1405 64.5876 22.3445 65.2956 22.7525C66.0036 23.1605 66.5616 23.7245 66.9696 24.4445C67.3776 25.1525 67.5816 25.9745 67.5816 26.9105C67.5816 27.8345 67.3776 28.6565 66.9696 29.3765C66.5616 30.0965 66.0036 30.6605 65.2956 31.0685C64.5876 31.4765 63.7836 31.6805 62.8836 31.6805ZM62.8836 30.8705C63.6036 30.8705 64.2516 30.7085 64.8276 30.3845C65.4036 30.0485 65.8536 29.5805 66.1776 28.9805C66.5016 28.3805 66.6636 27.6905 66.6636 26.9105C66.6636 26.1185 66.5016 25.4285 66.1776 24.8405C65.8536 24.2405 65.4036 23.7785 64.8276 23.4545C64.2516 23.1185 63.6036 22.9505 62.8836 22.9505C62.1636 22.9505 61.5156 23.1185 60.9396 23.4545C60.3756 23.7785 59.9256 24.2405 59.5896 24.8405C59.2656 25.4285 59.1036 26.1185 59.1036 26.9105C59.1036 27.6905 59.2656 28.3805 59.5896 28.9805C59.9256 29.5805 60.3756 30.0485 60.9396 30.3845C61.5156 30.7085 62.1636 30.8705 62.8836 30.8705ZM76.0437 22.1405C76.8117 22.1405 77.4777 22.2905 78.0417 22.5905C78.6177 22.8785 79.0617 23.3225 79.3737 23.9225C79.6977 24.5105 79.8597 25.2425 79.8597 26.1185V31.6085H78.9597V26.1905C78.9597 25.1345 78.6897 24.3305 78.1497 23.7785C77.6217 23.2265 76.8777 22.9505 75.9177 22.9505C75.1857 22.9505 74.5497 23.1005 74.0097 23.4005C73.4697 23.7005 73.0557 24.1205 72.7677 24.6605C72.4917 25.2005 72.3537 25.8485 72.3537 26.6045V31.6085H71.4537V22.2125H72.3177V24.8225L72.1917 24.5345C72.4797 23.7905 72.9537 23.2085 73.6137 22.7885C74.2737 22.3565 75.0837 22.1405 76.0437 22.1405ZM89.2351 22.1405C90.0031 22.1405 90.6691 22.2905 91.2331 22.5905C91.8091 22.8785 92.2531 23.3225 92.5651 23.9225C92.8891 24.5105 93.0511 25.2425 93.0511 26.1185V31.6085H92.1511V26.1905C92.1511 25.1345 91.8811 24.3305 91.3411 23.7785C90.8131 23.2265 90.0691 22.9505 89.1091 22.9505C88.3771 22.9505 87.7411 23.1005 87.2011 23.4005C86.6611 23.7005 86.2471 24.1205 85.9591 24.6605C85.6831 25.2005 85.5451 25.8485 85.5451 26.6045V31.6085H84.6451V22.2125H85.5091V24.8225L85.3831 24.5345C85.6711 23.7905 86.1451 23.2085 86.8051 22.7885C87.4651 22.3565 88.2751 22.1405 89.2351 22.1405ZM101.652 31.6805C100.704 31.6805 99.8644 31.4765 99.1324 31.0685C98.4124 30.6605 97.8424 30.0965 97.4224 29.3765C97.0144 28.6565 96.8104 27.8345 96.8104 26.9105C96.8104 25.9745 97.0024 25.1525 97.3864 24.4445C97.7824 23.7245 98.3224 23.1605 99.0064 22.7525C99.6904 22.3445 100.458 22.1405 101.31 22.1405C102.162 22.1405 102.924 22.3385 103.596 22.7345C104.28 23.1305 104.814 23.6885 105.198 24.4085C105.594 25.1165 105.792 25.9385 105.792 26.8745C105.792 26.9105 105.786 26.9525 105.774 27.0005C105.774 27.0365 105.774 27.0785 105.774 27.1265H97.4764V26.4245H105.288L104.928 26.7665C104.94 26.0345 104.784 25.3805 104.46 24.8045C104.148 24.2165 103.722 23.7605 103.182 23.4365C102.642 23.1005 102.018 22.9325 101.31 22.9325C100.614 22.9325 99.9904 23.1005 99.4384 23.4365C98.8984 23.7605 98.4724 24.2165 98.1604 24.8045C97.8484 25.3805 97.6924 26.0405 97.6924 26.7845V26.9465C97.6924 27.7145 97.8604 28.3985 98.1964 28.9985C98.5444 29.5865 99.0184 30.0485 99.6184 30.3845C100.218 30.7085 100.902 30.8705 101.67 30.8705C102.27 30.8705 102.828 30.7625 103.344 30.5465C103.872 30.3305 104.316 30.0005 104.676 29.5565L105.198 30.1505C104.79 30.6545 104.274 31.0385 103.65 31.3025C103.038 31.5545 102.372 31.6805 101.652 31.6805ZM113.383 31.6805C112.471 31.6805 111.655 31.4765 110.935 31.0685C110.227 30.6605 109.663 30.0965 109.243 29.3765C108.835 28.6565 108.631 27.8345 108.631 26.9105C108.631 25.9745 108.835 25.1465 109.243 24.4265C109.663 23.7065 110.227 23.1485 110.935 22.7525C111.655 22.3445 112.471 22.1405 113.383 22.1405C114.139 22.1405 114.823 22.2845 115.435 22.5725C116.059 22.8605 116.563 23.2925 116.947 23.8685L116.281 24.3545C115.945 23.8745 115.525 23.5205 115.021 23.2925C114.517 23.0645 113.971 22.9505 113.383 22.9505C112.651 22.9505 111.991 23.1185 111.403 23.4545C110.827 23.7785 110.371 24.2405 110.035 24.8405C109.711 25.4285 109.549 26.1185 109.549 26.9105C109.549 27.7025 109.711 28.3985 110.035 28.9985C110.371 29.5865 110.827 30.0485 111.403 30.3845C111.991 30.7085 112.651 30.8705 113.383 30.8705C113.971 30.8705 114.517 30.7565 115.021 30.5285C115.525 30.3005 115.945 29.9465 116.281 29.4665L116.947 29.9525C116.563 30.5285 116.059 30.9605 115.435 31.2485C114.823 31.5365 114.139 31.6805 113.383 31.6805ZM123.562 31.6805C122.734 31.6805 122.098 31.4525 121.654 30.9965C121.222 30.5405 121.006 29.9165 121.006 29.1245V20.1605H121.906V29.0345C121.906 29.6345 122.056 30.0965 122.356 30.4205C122.656 30.7445 123.088 30.9065 123.652 30.9065C124.24 30.9065 124.726 30.7325 125.11 30.3845L125.488 31.0145C125.248 31.2425 124.954 31.4105 124.606 31.5185C124.27 31.6265 123.922 31.6805 123.562 31.6805ZM119.278 22.9865V22.2125H124.894V22.9865H119.278Z" fill="white" fill-opacity="0.7"/>
<path d="M2.28194 15.8999C2.3434 15.924 2.40422 15.9481 2.4669 15.9676C2.56286 15.9971 2.6601 16.0175 2.75824 16.0362C2.82874 16.0497 2.89812 16.0658 2.96946 16.0736C3.06693 16.0842 3.16507 16.0839 3.26337 16.0838C3.33452 16.0838 3.40523 16.0889 3.47656 16.0833C3.59844 16.0736 3.72034 16.0492 3.84153 16.0229C3.88597 16.0134 3.93074 16.0121 3.97499 16.0003L27.4638 9.70649C27.4664 9.70571 27.4685 9.7044 27.4711 9.70353L30.7697 8.81965L32.4907 15.2425L26.9961 16.7148C25.5116 17.1126 24.6268 18.644 25.0244 20.1285C25.4222 21.6132 26.9544 22.4978 28.4391 22.1L33.9337 20.6277L35.8625 27.8259L10.0513 34.742C8.57508 35.1375 7.05224 34.2576 6.65669 32.7813L2.1175 15.8408C2.17082 15.8655 2.22754 15.8788 2.28194 15.8999ZM18.1061 17.3255C17.5322 17.4794 17.0266 17.7347 16.5897 18.0918C16.1577 18.4402 15.8041 18.8581 15.5292 19.3445C15.2613 19.829 15.0908 20.3549 15.0177 20.9222C14.9498 21.4808 14.9927 22.0475 15.1465 22.6216C15.3022 23.2027 15.5536 23.7209 15.9006 24.1757C16.2457 24.6234 16.6563 24.9937 17.1324 25.2863C17.6137 25.5701 18.1289 25.7552 18.6772 25.8409C19.2323 25.9247 19.7935 25.8906 20.3604 25.7387C20.8366 25.6111 21.2776 25.4212 21.6831 25.17C22.0867 24.9118 22.4227 24.5702 22.6916 24.1455C22.7205 24.0853 22.7361 24.032 22.7389 23.9863C22.7467 23.9317 22.7437 23.8761 22.7288 23.8201C22.6987 23.7085 22.6395 23.6268 22.551 23.5756C22.4622 23.5243 22.3661 23.5047 22.2643 23.5169C22.1698 23.5274 22.0897 23.5789 22.0246 23.6711C21.7803 23.9918 21.503 24.2612 21.1937 24.4792C20.8844 24.697 20.5372 24.8583 20.1522 24.9614C19.6972 25.0833 19.2465 25.1096 18.8007 25.0415C18.3599 24.9645 17.9469 24.8092 17.5615 24.5748C17.176 24.3405 16.8404 24.04 16.5547 23.6739C16.276 23.3058 16.0721 22.8839 15.9445 22.4078C15.8207 21.9457 15.7882 21.4851 15.8455 21.027C15.9099 20.567 16.0503 20.139 16.2669 19.7433C16.4835 19.3477 16.7635 19.0066 17.1067 18.7196C17.4569 18.4307 17.8595 18.2248 18.3144 18.1028C18.7415 17.9884 19.1326 17.9471 19.4866 17.9798C19.8386 18.0055 20.1829 18.1013 20.5197 18.2661C20.6047 18.3034 20.6834 18.3158 20.7553 18.3041C20.8342 18.2904 20.8985 18.2624 20.947 18.2194C20.9953 18.1764 21.0188 18.1246 21.0178 18.0649C21.0661 18.022 21.0966 17.9691 21.1096 17.9058C21.1208 17.8353 21.1114 17.7697 21.0805 17.7104C21.0547 17.6424 21.0032 17.5925 20.9271 17.5605C20.4558 17.3416 19.994 17.2138 19.5415 17.1775C19.089 17.1412 18.6102 17.1905 18.1061 17.3255ZM11.2126 23.0024C10.9606 23.0699 10.7359 23.1973 10.5387 23.3851C10.3395 23.5661 10.1823 23.7925 10.0673 24.0635C10.0288 24.1711 10.0304 24.2755 10.0724 24.3765C10.1196 24.4689 10.1954 24.5276 10.2994 24.5523C10.4036 24.5769 10.5014 24.5625 10.5919 24.5083C10.6824 24.454 10.7468 24.3722 10.7854 24.2643C10.8566 24.1104 10.9409 23.9905 11.0378 23.9045C11.1399 23.8096 11.2544 23.7454 11.3804 23.7116C11.4643 23.6892 11.5563 23.6827 11.6565 23.6932C11.7639 23.702 11.9038 23.7326 12.0752 23.7843C12.2148 23.8293 12.3788 23.8682 12.5673 23.9001C12.756 23.9321 12.9627 23.9175 13.1867 23.8575C13.6487 23.7337 13.9705 23.464 14.1517 23.0479C14.1973 22.9382 14.1955 22.8333 14.1464 22.7339C14.0973 22.6346 14.0171 22.5734 13.9062 22.5506C13.8001 22.5189 13.7091 22.5315 13.6344 22.589C13.5649 22.6377 13.5021 22.7118 13.4458 22.8094C13.3997 22.8891 13.3399 22.9617 13.2672 23.0261C13.1927 23.0834 13.0995 23.1266 12.9878 23.1566C12.8758 23.1866 12.7685 23.1926 12.6662 23.175C12.564 23.1574 12.4352 23.1246 12.2798 23.0763C12.149 23.0363 11.992 22.9994 11.8103 22.9656C11.6287 22.9318 11.4295 22.9442 11.2126 23.0024ZM13.9229 4.21138C16.4204 3.54219 18.9875 5.02434 19.6567 7.5218C20.0092 8.8373 19.841 10.3091 19.0657 11.0023L12.8655 12.6637C11.9299 12.4174 10.9464 11.1876 10.6134 9.94495C9.94428 7.44762 11.4257 4.88076 13.9229 4.21138ZM9.64586 9.82407C9.68444 10.0049 9.73201 10.1845 9.78899 10.362C8.87447 10.4869 7.99838 10.8533 7.26875 11.4306C6.25219 12.2297 5.59009 13.3465 5.37014 14.6003L3.71656 15.0434C3.44341 15.1165 3.16402 15.1142 2.89477 15.0553C2.71972 15.0162 2.548 14.9577 2.38745 14.8637C2.25566 14.7887 2.1407 14.6934 2.0351 14.5901C1.81634 14.3743 1.65319 14.108 1.5718 13.8043C1.57145 13.8033 1.57042 13.8027 1.5701 13.8017C1.32158 12.8684 1.87751 11.9056 2.81081 11.6555L9.64586 9.82407ZM7.88232 12.2074C8.5568 11.6742 9.3512 11.3691 10.1954 11.3126C10.3443 11.5866 10.5129 11.8534 10.7123 12.1063C10.9576 12.4173 11.237 12.6945 11.5515 12.944L6.44737 14.3116C6.6905 13.486 7.18485 12.7556 7.88232 12.2074ZM20.5097 9.84503C21.3421 9.40167 22.3411 9.40973 23.1624 9.83286L20.2797 10.6053C20.375 10.356 20.4517 10.1022 20.5097 9.84503ZM26.729 8.8772L24.4094 9.49872C23.379 8.58201 21.9302 8.29609 20.647 8.71231C20.6568 8.11694 20.5691 7.52247 20.3886 6.95163L25.8229 5.49552L26.729 8.8772ZM14.9245 5.77598C14.7705 5.62218 14.5742 5.61193 14.4386 5.74743C14.303 5.8831 14.3033 6.0575 14.4383 6.23684L14.5447 6.37718C14.3693 6.69436 14.4249 7.04206 14.7106 7.41147L16.1443 9.24548C16.0482 9.38851 15.9253 9.51128 15.7823 9.60737L13.9484 8.1738C13.5782 7.88925 13.2316 7.83215 12.9144 8.00903L12.7745 7.90194C12.5944 7.76614 12.4222 7.76572 12.2854 7.90259C12.1486 8.03939 12.1596 8.23445 12.3134 8.38844L12.4462 8.52171C12.303 8.82971 12.3775 9.15211 12.6579 9.43252L14.7251 11.4991L15.1491 11.0742L12.5788 8.50337C12.6274 8.41761 12.6875 8.33843 12.7577 8.26939C12.8038 8.22184 12.8543 8.17882 12.9081 8.14013L14.8198 9.61859C15.1436 9.86929 15.4657 9.90934 15.7759 9.73847L16.0021 9.91447C16.0634 9.96613 16.1419 9.99303 16.2212 9.98919C16.3007 9.98523 16.3758 9.95032 16.43 9.89282C16.4893 9.83979 16.5247 9.76531 16.5291 9.6853C16.5333 9.60505 16.5061 9.52508 16.4526 9.46415L16.2752 9.23972C16.4427 8.93141 16.4007 8.6013 16.1544 8.28332L14.6756 6.37143C14.7144 6.31743 14.7584 6.26742 14.8062 6.22118C14.8752 6.15099 14.9534 6.09008 15.0391 6.04149L17.6094 8.61227L18.0353 8.18677L15.9681 6.12014C15.6878 5.84009 15.366 5.76588 15.0582 5.90899L14.9245 5.77598ZM14.9985 11.0741L14.724 11.3478L12.7352 9.35518C12.4977 9.11758 12.4265 8.86032 12.5291 8.60464L14.9985 11.0741ZM16.3678 9.53238C16.3858 9.55201 16.4 9.57517 16.4092 9.60014C16.4183 9.62525 16.4225 9.65229 16.4212 9.67882C16.4199 9.7052 16.4135 9.73106 16.4021 9.75471C16.3906 9.77843 16.374 9.79987 16.3541 9.81711C16.3185 9.8564 16.2683 9.88018 16.215 9.88269C16.1618 9.8851 16.1098 9.86622 16.0696 9.83066L15.8745 9.67973C16.0066 9.58534 16.1221 9.46952 16.2164 9.33736L16.3678 9.53238ZM13.0085 8.08088C13.2766 7.95307 13.5643 8.01151 13.883 8.25805L15.6816 9.66568C15.4238 9.7875 15.1559 9.74379 14.8849 9.5334L13.0085 8.08088ZM16.0695 8.34752C16.2798 8.61856 16.3234 8.88616 16.2011 9.14432L14.7953 7.34633C14.548 7.02785 14.4898 6.74003 14.6176 6.47189L16.0695 8.34752ZM15.1413 5.99287C15.3973 5.88996 15.6559 5.95917 15.8936 6.19673L17.884 8.1879L17.6105 8.46136L15.1413 5.99287ZM12.3613 7.9783C12.4572 7.88242 12.5738 7.88523 12.7082 7.98644L12.8174 8.06941C12.7688 8.10669 12.723 8.14736 12.6801 8.19111C12.6103 8.26009 12.5491 8.33769 12.4983 8.42181L12.3879 8.31186C12.277 8.20069 12.2654 8.0742 12.3613 7.9783ZM14.5162 5.82572C14.6108 5.73119 14.7387 5.74132 14.85 5.85256L14.9589 5.96088C14.8747 6.01168 14.7967 6.07326 14.7277 6.14314L14.7289 6.14383C14.685 6.18676 14.6444 6.23291 14.607 6.28162L14.5242 6.17239C14.423 6.03806 14.4219 5.92022 14.5162 5.82572Z" fill="white" fill-opacity="0.75"/>
<path d="M33.2248 16.0706L27.2517 17.6711C26.2941 17.9277 25.7241 18.9153 25.9806 19.8726C26.2371 20.8299 27.2246 21.4003 28.1821 21.1437L34.1552 19.5432L34.8285 19.3628L33.898 15.8902L33.2248 16.0706ZM28.7056 19.7414L28.0828 19.9083C27.8186 19.9791 27.5474 19.8224 27.4766 19.5583C27.4059 19.2943 27.5624 19.023 27.8266 18.9522L28.4494 18.7853C28.7137 18.7145 28.9848 18.8713 29.0556 19.1353C29.1263 19.3993 28.9698 19.6706 28.7056 19.7414Z" fill="white" fill-opacity="0.75"/>
<defs>
<linearGradient id="paint0_linear_1_108" x1="85.2783" y1="2.60852" x2="85.2783" y2="32.6085" gradientUnits="userSpaceOnUse">
<stop offset="0.213542" stop-color="#264653"/>
<stop offset="1" stop-color="#264653" stop-opacity="0.36"/>
</linearGradient>
</defs>
</svg>
