<svg width="38" height="36" viewBox="0 0 38 36" fill="none" xmlns="http://www.w3.org/2000/svg">
<path d="M2.28194 15.8999C2.3434 15.924 2.40422 15.9481 2.4669 15.9676C2.56286 15.9971 2.6601 16.0175 2.75824 16.0362C2.82874 16.0497 2.89812 16.0658 2.96946 16.0736C3.06693 16.0842 3.16507 16.0839 3.26337 16.0838C3.33452 16.0838 3.40523 16.0889 3.47656 16.0833C3.59844 16.0736 3.72034 16.0492 3.84153 16.0229C3.88597 16.0134 3.93074 16.0121 3.97499 16.0003L27.4638 9.70649C27.4664 9.70571 27.4685 9.7044 27.4711 9.70353L30.7697 8.81965L32.4907 15.2425L26.9961 16.7148C25.5116 17.1126 24.6268 18.644 25.0244 20.1285C25.4222 21.6132 26.9544 22.4978 28.4391 22.1L33.9337 20.6277L35.8625 27.8259L10.0513 34.742C8.57508 35.1375 7.05224 34.2576 6.65669 32.7813L2.1175 15.8408C2.17082 15.8655 2.22754 15.8788 2.28194 15.8999ZM18.1061 17.3255C17.5322 17.4794 17.0266 17.7347 16.5897 18.0918C16.1577 18.4402 15.8041 18.8581 15.5292 19.3445C15.2613 19.829 15.0908 20.3549 15.0177 20.9222C14.9498 21.4808 14.9927 22.0475 15.1465 22.6216C15.3022 23.2027 15.5536 23.7209 15.9006 24.1757C16.2457 24.6234 16.6563 24.9937 17.1324 25.2863C17.6137 25.5701 18.1289 25.7552 18.6772 25.8409C19.2323 25.9247 19.7935 25.8906 20.3604 25.7387C20.8366 25.6111 21.2776 25.4212 21.6831 25.17C22.0867 24.9118 22.4227 24.5702 22.6916 24.1455C22.7205 24.0853 22.7361 24.032 22.7389 23.9863C22.7467 23.9317 22.7437 23.8761 22.7288 23.8201C22.6987 23.7085 22.6395 23.6268 22.551 23.5756C22.4622 23.5243 22.3661 23.5047 22.2643 23.5169C22.1698 23.5274 22.0897 23.5789 22.0246 23.6711C21.7803 23.9918 21.503 24.2612 21.1937 24.4792C20.8844 24.697 20.5372 24.8583 20.1522 24.9614C19.6972 25.0833 19.2465 25.1096 18.8007 25.0415C18.3599 24.9645 17.9469 24.8092 17.5615 24.5748C17.176 24.3405 16.8404 24.04 16.5547 23.6739C16.276 23.3058 16.0721 22.8839 15.9445 22.4078C15.8207 21.9457 15.7882 21.4851 15.8455 21.027C15.9099 20.567 16.0503 20.139 16.2669 19.7433C16.4835 19.3477 16.7635 19.0066 17.1067 18.7196C17.4569 18.4307 17.8595 18.2248 18.3144 18.1028C18.7415 17.9884 19.1326 17.9471 19.4866 17.9798C19.8386 18.0055 20.1829 18.1013 20.5197 18.2661C20.6047 18.3034 20.6834 18.3158 20.7553 18.3041C20.8342 18.2904 20.8985 18.2624 20.947 18.2194C20.9953 18.1764 21.0188 18.1246 21.0178 18.0649C21.0661 18.022 21.0966 17.9691 21.1096 17.9058C21.1208 17.8353 21.1114 17.7697 21.0805 17.7104C21.0547 17.6424 21.0032 17.5925 20.9271 17.5605C20.4558 17.3416 19.994 17.2138 19.5415 17.1775C19.089 17.1412 18.6102 17.1905 18.1061 17.3255ZM11.2126 23.0024C10.9606 23.0699 10.7359 23.1973 10.5387 23.3851C10.3395 23.5661 10.1823 23.7925 10.0673 24.0635C10.0288 24.1711 10.0304 24.2755 10.0724 24.3765C10.1196 24.4689 10.1954 24.5276 10.2994 24.5523C10.4036 24.5769 10.5014 24.5625 10.5919 24.5083C10.6824 24.454 10.7468 24.3722 10.7854 24.2643C10.8566 24.1104 10.9409 23.9905 11.0378 23.9045C11.1399 23.8096 11.2544 23.7454 11.3804 23.7116C11.4643 23.6892 11.5563 23.6827 11.6565 23.6932C11.7639 23.702 11.9038 23.7326 12.0752 23.7843C12.2148 23.8293 12.3788 23.8682 12.5673 23.9001C12.756 23.9321 12.9627 23.9175 13.1867 23.8575C13.6487 23.7337 13.9705 23.464 14.1517 23.0479C14.1973 22.9382 14.1955 22.8333 14.1464 22.7339C14.0973 22.6346 14.0171 22.5734 13.9062 22.5506C13.8001 22.5189 13.7091 22.5315 13.6344 22.589C13.5649 22.6377 13.5021 22.7118 13.4458 22.8094C13.3997 22.8891 13.3399 22.9617 13.2672 23.0261C13.1927 23.0834 13.0995 23.1266 12.9878 23.1566C12.8758 23.1866 12.7685 23.1926 12.6662 23.175C12.564 23.1574 12.4352 23.1246 12.2798 23.0763C12.149 23.0363 11.992 22.9994 11.8103 22.9656C11.6287 22.9318 11.4295 22.9442 11.2126 23.0024ZM13.9229 4.21138C16.4204 3.54219 18.9875 5.02434 19.6567 7.5218C20.0092 8.8373 19.841 10.3091 19.0657 11.0023L12.8655 12.6637C11.9299 12.4174 10.9464 11.1876 10.6134 9.94495C9.94428 7.44762 11.4257 4.88076 13.9229 4.21138ZM9.64586 9.82407C9.68444 10.0049 9.73201 10.1845 9.78899 10.362C8.87447 10.4869 7.99838 10.8533 7.26875 11.4306C6.25219 12.2297 5.59009 13.3465 5.37014 14.6003L3.71656 15.0434C3.44341 15.1165 3.16402 15.1142 2.89477 15.0553C2.71972 15.0162 2.548 14.9577 2.38745 14.8637C2.25566 14.7887 2.1407 14.6934 2.0351 14.5901C1.81634 14.3743 1.65319 14.108 1.5718 13.8043C1.57145 13.8033 1.57042 13.8027 1.5701 13.8017C1.32158 12.8684 1.87751 11.9056 2.81081 11.6555L9.64586 9.82407ZM7.88232 12.2074C8.5568 11.6742 9.3512 11.3691 10.1954 11.3126C10.3443 11.5866 10.5129 11.8534 10.7123 12.1063C10.9576 12.4173 11.237 12.6945 11.5515 12.944L6.44737 14.3116C6.6905 13.486 7.18485 12.7556 7.88232 12.2074ZM20.5097 9.84503C21.3421 9.40167 22.3411 9.40973 23.1624 9.83286L20.2797 10.6053C20.375 10.356 20.4517 10.1022 20.5097 9.84503ZM26.729 8.8772L24.4094 9.49872C23.379 8.58201 21.9302 8.29609 20.647 8.71231C20.6568 8.11694 20.5691 7.52247 20.3886 6.95163L25.8229 5.49552L26.729 8.8772ZM14.9245 5.77598C14.7705 5.62218 14.5742 5.61193 14.4386 5.74743C14.303 5.8831 14.3033 6.0575 14.4383 6.23684L14.5447 6.37718C14.3693 6.69436 14.4249 7.04206 14.7106 7.41147L16.1443 9.24548C16.0482 9.38851 15.9253 9.51128 15.7823 9.60737L13.9484 8.1738C13.5782 7.88925 13.2316 7.83215 12.9144 8.00903L12.7745 7.90194C12.5944 7.76614 12.4222 7.76572 12.2854 7.90259C12.1486 8.03939 12.1596 8.23445 12.3134 8.38844L12.4462 8.52171C12.303 8.82971 12.3775 9.15211 12.6579 9.43252L14.7251 11.4991L15.1491 11.0742L12.5788 8.50337C12.6274 8.41761 12.6875 8.33843 12.7577 8.26939C12.8038 8.22184 12.8543 8.17882 12.9081 8.14013L14.8198 9.61859C15.1436 9.86929 15.4657 9.90934 15.7759 9.73847L16.0021 9.91447C16.0634 9.96613 16.1419 9.99303 16.2212 9.98919C16.3007 9.98523 16.3758 9.95032 16.43 9.89282C16.4893 9.83979 16.5247 9.76531 16.5291 9.6853C16.5333 9.60505 16.5061 9.52508 16.4526 9.46415L16.2752 9.23972C16.4427 8.93141 16.4007 8.6013 16.1544 8.28332L14.6756 6.37143C14.7144 6.31743 14.7584 6.26742 14.8062 6.22118C14.8752 6.15099 14.9534 6.09008 15.0391 6.04149L17.6094 8.61227L18.0353 8.18677L15.9681 6.12014C15.6878 5.84009 15.366 5.76588 15.0582 5.90899L14.9245 5.77598ZM14.9985 11.0741L14.724 11.3478L12.7352 9.35518C12.4977 9.11758 12.4265 8.86032 12.5291 8.60464L14.9985 11.0741ZM16.3678 9.53238C16.3858 9.55201 16.4 9.57517 16.4092 9.60014C16.4183 9.62525 16.4225 9.65229 16.4212 9.67882C16.4199 9.7052 16.4135 9.73106 16.4021 9.75471C16.3906 9.77843 16.374 9.79987 16.3541 9.81711C16.3185 9.8564 16.2683 9.88018 16.215 9.88269C16.1618 9.8851 16.1098 9.86622 16.0696 9.83066L15.8745 9.67973C16.0066 9.58534 16.1221 9.46952 16.2164 9.33736L16.3678 9.53238ZM13.0085 8.08088C13.2766 7.95307 13.5643 8.01151 13.883 8.25805L15.6816 9.66568C15.4238 9.7875 15.1559 9.74379 14.8849 9.5334L13.0085 8.08088ZM16.0695 8.34752C16.2798 8.61856 16.3234 8.88616 16.2011 9.14432L14.7953 7.34633C14.548 7.02785 14.4898 6.74003 14.6176 6.47189L16.0695 8.34752ZM15.1413 5.99287C15.3973 5.88996 15.6559 5.95917 15.8936 6.19673L17.884 8.1879L17.6105 8.46136L15.1413 5.99287ZM12.3613 7.9783C12.4572 7.88242 12.5738 7.88523 12.7082 7.98644L12.8174 8.06941C12.7688 8.10669 12.723 8.14736 12.6801 8.19111C12.6103 8.26009 12.5491 8.33769 12.4983 8.42181L12.3879 8.31186C12.277 8.20069 12.2654 8.0742 12.3613 7.9783ZM14.5162 5.82572C14.6108 5.73119 14.7387 5.74132 14.85 5.85256L14.9589 5.96088C14.8747 6.01168 14.7967 6.07326 14.7277 6.14314L14.7289 6.14383C14.685 6.18676 14.6444 6.23291 14.607 6.28162L14.5242 6.17239C14.423 6.03806 14.4219 5.92022 14.5162 5.82572Z" fill="white" fill-opacity="0.75"/>
<path d="M33.2248 16.0706L27.2517 17.6711C26.2941 17.9277 25.7241 18.9153 25.9806 19.8726C26.2371 20.8299 27.2246 21.4003 28.1821 21.1437L34.1552 19.5432L34.8285 19.3628L33.898 15.8902L33.2248 16.0706V16.0706ZM28.7056 19.7414L28.0828 19.9083C27.8186 19.9791 27.5474 19.8224 27.4766 19.5583C27.4059 19.2943 27.5624 19.023 27.8266 18.9522L28.4494 18.7853C28.7137 18.7145 28.9848 18.8713 29.0556 19.1353C29.1263 19.3993 28.9698 19.6706 28.7056 19.7414Z" fill="white" fill-opacity="0.75"/>
</svg>
